<svg
        viewBox="0 0 532 645"
        xmlns="http://www.w3.org/2000/svg"
>
<path fill="#E67D2D" d="m354.78 251.82c-12.318-7.578-24.551-15.299-36.979-22.693-12.443-7.403-25.083-14.475-37.632-21.702-3.399-1.957-6.457-2.949-10.682-1.106-6.693 2.919-12.078 7.562-17.507 11.996-9.667 7.896-19.724 15.219-29.817 22.525-10.917 7.901-22.733 14.289-34.306 21.122-19.001 11.218-38.492 21.163-59.905 26.895-4.235 1.133-4.726 3.984-3.48 7.278 2.368 6.262 5.685 11.5 13.445 12.258 4.169 0.407 8.255 0.817 12.408 0.218 18.26-2.636 35.35-8.706 51.79-17.005 25.747-12.997 49.185-29.241 70.867-48.232 7.247-6.348 14.715-12.386 21.02-19.711 1.451-1.687 3.05-2.596 5.176-1.051 2.805 2.039 5.63 4.049 9.079 6.525-6.897 8.01-12.915 16.517-20.433 23.381-11.868 10.836-22.327 23.304-36.446 31.668-10.424 6.175-19.783 14.032-30.578 19.717-14.184 7.469-29.12 13.062-44.206 18.278-13.485 4.663-27.276 7.217-41.629 4.72-2.806-0.488-4.05 1.157-3.646 3.881 0.705 4.76 1.34 9.541 2.319 14.249 5.635 27.086 8.414 54.401 7.453 82.103-0.548 15.798-1.267 31.538-4.083 47.141-3.6 19.951-6.994 39.98-13.607 59.179-2.265 6.576-3.951 14.161-11.572 17.728-2.383 1.115-2.625 4.258-2.775 6.674-0.479 7.739-0.97 15.507-0.756 23.245 0.086 3.138-0.952 4.085-3.471 4.883-1.321 0.419-3.028 0.147-3.969 1.612 4.033 3.094 9.324 1.7 10.389-3.04 0.825-3.676 2.478-4.738 5.971-3.772 1.249 0.345 2.653 0.263 3.975 0.189 9.597-0.536 14.37-5.909 13.552-15.187-0.102-1.163-0.316-2.377 1.209-2.911 2.053 0.901 0.675 3.495 2.481 5.232v-10.517c0.468 5.434-3.834 2.496-5.959 3.279-3.988 1.471-7.348 1.237-9.3-3.541-2.133-5.218-1.794-7.985 2.502-11.387 3.943-3.121 7.272-6.727 10.138-10.894 11.41-16.586 22.387-33.442 32.417-50.901 12.855-22.377 24.463-45.386 35.346-68.786 2.534-5.448 4.298-11.451 8.626-16.791 5.207 6.377 11.33 10.439 18.386 13.208 2.787 1.094 1.811 2.985 0.493 4.811-5.646 7.822-11.231 15.687-16.865 23.518-13.303 18.492-26.454 37.087-39.055 56.069-10.491 15.804-21.06 31.557-31.738 47.235-3.64 5.345-3.839 7.187 0.059 13.779 1.544 0.181 2.371-1.001 3.383-1.816 6.089-4.903 12.021-10.014 18.281-14.686 20.38-15.206 40.455-30.829 62.079-44.316 16.226-10.12 32.493-20.219 49.71-28.503 22.008-10.59 44.077-21.163 67.485-28.487 3.551-1.111 4.803-3.2 3.456-6.824-2.385-6.416-3.288-13.205-4.898-19.805-5.271-21.601-5.807-43.502-5.282-65.483 0.342-14.284 2.203-28.426 4.453-42.586 2.375-14.945 7.75-28.864 11.979-43.186 0.475-1.609 1.366-2.835 3.219-2.257 5.322 1.658 10.313 4.456 13.935 8.39 2.47 2.683-1.786 5.929-2.506 9.081-0.221 0.969-0.554 1.913-0.801 2.877-4.573 17.906-8.288 35.992-9.708 54.431-0.713 9.269-1.896 18.568-1.082 27.91 0.85 9.756 1.594 19.524 2.695 29.253 1.327 11.732 3.862 23.244 7.057 34.611 0.929 3.308 2.63 4.578 6.252 3.619 5.943-1.572 11.967-2.943 18.036-3.897 3.834-0.602 4.406-2.371 3.984-5.795-1.382-11.213-2.91-22.434-3.612-33.699-1.098-17.608-1.481-35.253-0.146-52.888 1.281-16.923 3.425-33.717 7.374-50.242 0.586-2.454 0.87-4.495-1.746-6.032-13.919-8.172-27.798-16.414-42.302-25.039zm102.73-205.68c-13.949-9.0777-29.112-16.033-43.146-25.033-11.456-7.3469-23.853-13.227-35.836-19.751-1.83-0.99644-3.46-1.8623-4.999 0.72144-9.225 15.481-17.164 31.451-20.676 49.352-2.363 12.043-2.055 24.022-0.985 36.175 0.777 8.8315 3.597 15.487 11.911 19.638 8.608 4.298 16.982 9.096 25.285 13.971 19.798 11.624 39.478 23.449 59.253 35.111 2.269 1.338 4.822 2.212 7.28 3.209 1.636 0.664 3.362 0.77 4.582-0.76 3.798-4.76 9.457-6.726 14.518-9.422 24.059-12.816 40.902-32.578 54.276-55.707 3.762-6.5064 3.346-7.2351-3.224-10.655-6.051-3.1501-12.183-6.1504-18.173-9.4115-16.498-8.9817-32.941-18.065-50.067-27.437m-60.378 579.96c8.011 1.506 16.018 3.035 24.034 4.512 8.045 1.482 15.601 4.684 23.515 6.612 7.671 1.869 14.838 5.363 22.458 7.411-1.042-2.252-3.015-2.855-4.742-3.775-26.226-13.983-54.297-22.682-83.334-28.238-23.741-4.543-47.812-6.07-71.986-6.207-34.482-0.194-68.938 1.586-103.4 1.467-21.884-0.076-43.704-1.446-65.422-5.734-12.846-2.536-25.17-5.973-37.307-10.505-3.683-1.375-8.7409-1.711-10.889-3.638-4.4815-4.021-9.7805-6.378-14.534-9.69-9.6525-6.724-19.564-13.114-27.634-21.778-15.369-16.502-27.365-35.034-34.647-56.599-4.9559-14.677-7.547-29.595-7.6222-45.032-0.0128-2.638 1.6283-5.296-0.0243-8.577-0.62938 1.826-1.2547 3.03-1.45 4.3-2.8266 18.378-5.3932 36.459-1.6892 55.381 6.2538 31.947 22.374 57.873 45.37 79.663 17.968 17.025 38.466 30.147 63.058 36.855 19.427 5.299 38.964 8.487 58.906 9.382 20.13 0.903 40.252-0.144 60.321-2.12 8.933-0.88 18.003-0.73 26.844-2.115 23.069-3.612 46.38-3.784 69.579-5.318 23.302-1.541 46.547 1.008 70.598 3.743m39.967-398.56c2.531-4.513-1.664-5.844-3.944-7.719-13.968-11.488-30.723-18.469-45.987-27.887-25.307-15.614-51.594-29.635-77.399-44.447-4.896-2.811-9.975-2.076-15.05-1.57-1.842 0.184-3.411 1.761-2.93 3.961 1.013 4.629-0.693 8.598-2.974 12.299-2.091 3.392-1.197 5.301 2.038 7.169 13.236 7.641 26.353 15.489 39.57 23.163 15.232 8.843 30.554 17.532 45.781 26.385 14.517 8.439 28.686 17.471 43.661 25.129 4.448 2.275 7.442 1.22 10.306-2.485 3.118-4.034 4.669-8.773 6.928-13.998zm0.184-66.306c-23.03-11.629-44.309-26.284-66.891-38.7-12.958-7.124-25.51-14.984-38.256-22.495-1.537-0.906-3.223-2.3965-4.924-0.6489-1.38 1.4169-2.407 3.2619-2.11 5.4109 0.285 2.068 2.039 2.906 3.584 3.881 1.387 0.876 3.355 1.678 2.236 3.733-1.047 1.927-2.776 3.352-5.315 2.877-1.531-0.287-2.731-2.103-4.69-0.984 0.534 2.243 2.524 3.019 4.117 4.02 10.121 6.361 20.528 12.249 30.744 18.46 20.448 12.431 41.352 24.11 62.01 36.198 10.902 6.38 21.622 13.069 32.538 19.422 7.52 4.377 7.638 4.247 12.399-2.728 1.208-1.772 2.022-3.816 3.256-5.567 2.32-3.293 0.726-4.863-2.173-6.587-8.707-5.179-17.266-10.609-26.525-16.293m-66.563 66.659c-17.283-10.277-34.71-20.305-52.122-30.357-11.36-6.558-22.905-12.783-34.216-19.421-1.983-1.164-3.886-2.329-5.593 0.226-2.74 4.1-6.07 7.839-8.109 12.712 3.284 1.984 6.29 4.064 9.518 5.71 22.851 11.652 44.374 25.576 66.395 38.65 17.015 10.102 34.173 19.962 51.138 30.145 10.321 6.195 10.102 6.216 16.549-4.07 2.534-4.045 1.692-6.077-1.972-8.384-13.516-8.51-27.018-17.039-41.588-25.211z" />
        </svg>
